<svg width="1756" height="1037" viewBox="0 0 1756 1037" fill="none" xmlns="http://www.w3.org/2000/svg">
<path d="M553.016 576.174L-35 200.5L554.449 575.897L1205.45 977.742C1268.18 1016.46 1350.61 1036 1433.04 1036C1515.45 1036 1597.88 1016.46 1660.61 977.742C1721.54 940.13 1755 890.349 1755 837.244C1755 784.138 1721.54 734.358 1660.61 696.745L1081.48 339.265L1081.48 339.263C1055.48 323.589 1054.28 305.299 1055.49 295.621V295.619C1056.69 286.304 1062.74 268.388 1092.36 255.327L1092.37 255.324C1128.63 239.653 1177.02 241.891 1208.44 261.297L1461.78 417.672L1462.35 418.023L1461.78 418.374L1379.92 468.905L1715.46 468.905V261.779L1627.68 315.972L1627.07 316.343L1626.47 315.972L1373.13 159.596C1260.84 90.2743 1086.43 81.4279 957.406 138.578L957.404 138.579C880.349 172.5 831.957 225.599 824.19 283.868C816.424 342.136 850.477 399.293 917.383 440.592L1496.53 798.076C1513.46 808.525 1522.51 822.331 1522.51 837.244C1522.51 852.156 1513.46 865.962 1496.53 876.411C1462.05 898.059 1405.21 898.053 1370.14 876.411L375.619 263.26H375.374H375.04L-35 1" stroke="#585858"/>
</svg>
