<svg width="172" height="173" viewBox="0 0 172 173" fill="none" xmlns="http://www.w3.org/2000/svg">
<path d="M79.0196 22.289L81.896 22.2973L81.9915 19.3628L84.7848 19.3588L81.2891 25.0905C81.5801 25.6309 82.457 25.3607 82.9766 25.3191L83.3632 25.0905L83.4505 27.5719C80.624 28.5196 77.702 27.6595 77.702 27.6595L77.6355 25.0905C78.1967 25.4272 79.3687 25.6974 79.6846 25.0905L76.2722 19.3588L78.9447 19.3628" fill="white"/>
<path d="M22.1588 69.3402C22.5869 70.263 22.9027 71.2357 23.2394 72.2042C24.2785 74.4612 25.2263 76.7348 26.5772 78.8505V79.104L22.3167 82.5748C24.6859 85.5966 27.2963 88.5021 29.9149 91.4075C36.9478 86.2451 44.0015 81.0868 51.4417 76.9136C55.0039 75.2011 59.7798 76.5104 63.3877 74.9101C60.3659 77.1879 58.7657 80.5879 55.8602 82.9571C57.6185 85.1185 58.4082 87.6665 59.5139 90.1022C56.1969 90.1272 52.5681 90.4847 49.592 89.4705C50.2197 90.9835 50.3361 95.2398 50.519 97.3846C47.4515 96.2125 44.1844 95.5102 41.6115 93.1243C41.7486 97.339 40.061 100.81 38.7517 104.414C36.6318 102.414 34.3541 100.34 33.0032 97.925C31.8061 101.101 28.697 103.516 26.6686 106.351L22.3167 112.801C23.4223 110.05 23.626 106.966 23.7133 103.807C15.263 102.431 5.76937 98.4861 2.56881 89.5578C1.96195 87.8702 1.48806 86.1329 1.48806 84.1959C3.8573 88.8845 8.92835 91.5448 13.7292 92.2681C6.2432 87.8455 0.473849 80.2721 0 71.7262C2.39003 76.3733 7.21174 80.879 12.0167 82.8201L12.104 82.7285C4.352 75.2883 -0.448846 66.2104 0.403251 55.6111C1.98275 61.8793 5.84003 67.8315 11.6343 71.7262L11.6967 71.6638C5.27479 63.2759 0.698405 52.6808 4.26058 41.5911C4.57648 53.2004 12.3534 63.0929 22.1588 69.3402Z" fill="white"/>
<path d="M160.229 71.8169L160.295 71.8875C166.181 68.0551 170.034 61.9866 171.613 55.7019C172.515 66.5671 167.557 75.4747 159.825 82.89H160.071C164.851 80.9697 169.585 76.5511 172 71.8875C171.634 77.7441 169.065 82.6614 165.029 86.9926C162.91 89.1332 160.611 90.8912 158.2 92.3377C160.411 92.1299 162.531 91.3195 164.489 90.3302C166.904 89.0916 169.448 86.8097 170.599 84.2866C170.441 91.4775 164.942 98.1279 158.45 100.855C155.224 102.23 151.866 103.265 148.283 103.806C148.237 106.778 148.532 110.003 149.613 112.713C146.973 108.515 143.573 104.192 140.011 100.156C139.471 99.4997 139.196 98.7598 138.93 97.9908C137.459 100.36 135.298 102.43 133.111 104.504C131.893 100.809 130.044 97.3839 130.247 93.1234C127.699 95.5799 124.391 96.1911 121.323 97.384C121.415 94.8568 121.369 91.972 122.271 89.6277C118.663 90.4507 114.897 90.1432 112.262 90.1016C113.251 87.6202 114.22 85.1387 115.911 82.9565C113.072 80.5873 111.314 77.2951 108.471 74.9757C111.651 76.3723 116.248 75.4248 119.698 76.6884C123.443 78.5339 126.934 80.9696 130.476 83.2724L139.533 89.6942L141.857 91.4774L142.081 91.4066L149.679 82.7279L145.352 79.1658C147.09 76.1232 148.436 72.9267 149.613 69.6306C159.397 63.3209 167.444 53.4241 167.735 41.7483C171.277 52.8172 166.746 63.4622 160.229 71.8169Z" fill="white"/>
<path d="M21.3264 66.4556C18.8242 65.059 16.2306 62.6648 14.6552 60.1875C15.0584 53.8321 16.7959 48.0336 19.2275 42.5137C17.9431 50.7437 19.3396 59.0153 21.3264 66.4556Z" fill="white"/>
<path d="M157.275 60.3442C155.537 62.7841 153.197 65.2157 150.603 66.6123C152.474 59.1305 154.053 50.9253 152.702 42.6745C155.159 48.1695 156.805 54.0096 157.275 60.3442Z" fill="white"/>
<path d="M27.2774 58.2501C28.0214 56.1303 28.7862 54.0313 30.2285 52.2065C30.162 54.4428 29.8711 57.3025 31.0848 59.2644C34.805 58.4081 39.136 57.847 43.0765 58.6367C41.0231 59.3101 38.7079 60.7067 37.8267 62.893C37.4194 62.5272 37.3737 61.8787 36.9705 61.4256C35.9771 61.6085 34.9629 61.6751 34.0152 61.966L37.0369 64.83C36.7418 66.6381 36.5632 68.9574 37.195 70.645C37.3072 66.318 39.7429 62.2612 43.621 60.1871C45.4 59.2893 48.0394 58.6365 49.9057 59.8045C51.0363 60.6816 51.1485 62.149 50.8326 63.4334C50.8575 62.7559 50.2009 62.2153 49.6605 61.9036C46.6844 60.9725 44.2943 63.1631 42.4696 65.3744C42.1288 66.0062 41.6342 66.5425 41.4555 67.2449C42.877 68.1677 44.4524 67.7436 46.0984 67.6273C47.4285 67.328 48.6463 66.7669 49.752 65.9148C47.6113 69.1361 43.9536 70.3998 40.7572 71.8878L41.9958 73.6711C41.3183 74.2114 40.5327 74.8598 39.6764 75.1341L37.6688 72.4947C35.4575 74.1199 33.1839 75.4957 30.9976 77.1625L32.7765 79.7103C32.2154 80.205 31.5586 80.816 30.8395 81.1069C25.0453 73.5087 20.8264 63.0052 25.1118 53.4451L26.2632 51.5081C26.3089 53.8774 26.3962 56.2217 27.2774 58.2501Z" fill="white"/>
<path d="M142.4 79.3925L141.09 81.105C140.413 81.0177 139.785 80.2696 139.153 79.8664C139.627 78.9645 140.371 78.1746 140.932 77.3183C138.792 75.6266 136.447 74.1636 134.195 72.5841L132.253 75.1319H131.871C131.198 74.708 130.52 74.2591 129.843 73.8226C130.179 73.195 130.678 72.6297 131.081 72.0477C129.843 71.1666 128.242 70.8506 126.912 70.0151C125.108 69.0882 123.146 67.8954 122.02 66.0042C124.115 67.6502 127.407 68.3691 130.25 67.4713C130.52 66.9517 129.888 66.4322 129.71 65.9126C127.993 63.4602 125.516 61.357 122.423 61.8101C121.82 61.9015 121.322 62.5749 121.031 63.0446L120.939 63.4312C120.69 62.737 120.69 61.2905 121.255 60.5007C122.315 59.1748 124.003 59.1501 125.582 59.333C129.327 60.0521 132.956 63.4313 134.037 67.0849C134.465 68.2363 134.44 69.5662 134.668 70.8049C135.371 68.922 135.063 66.0457 134.893 64.8278C135.861 63.905 136.942 63.0071 137.823 62.0594C136.896 61.7435 135.861 61.6729 134.893 61.4942C134.668 61.9847 134.352 62.4462 134.195 62.9824C133.11 60.9997 130.969 59.3121 128.849 58.7178C132.569 57.8864 137.1 58.5432 140.845 59.333C142.038 57.396 141.834 54.69 141.635 52.3664C143.144 54.0748 143.908 56.2196 144.652 58.3395C145.421 56.2654 145.733 54.0332 145.575 51.5975C151.394 60.052 147.72 71.8899 142.4 79.3925Z" fill="white"/>
<path d="M59.5126 53.6075C62.0564 56.355 64.0433 60.2329 62.3058 63.9073C61.9899 64.3812 61.674 64.8303 61.3581 65.3042C64.833 65.5078 67.9878 64.9466 70.5815 63.047C72.3606 63.7911 74.2517 64.1777 76.3259 64.2234C78.5372 68.0558 80.4326 72.021 81.7419 76.2108C82.1867 73.1516 81.6962 69.8805 80.973 66.9958C80.6778 66.0232 80.2747 64.9882 80.1167 64.0613C82.8434 63.7288 85.4122 63.0056 87.7772 61.8085C89.6269 60.7527 91.6554 59.6928 92.9855 57.8681C88.3883 60.4992 83.338 61.9662 77.7931 62.2821C74.4346 62.1491 70.806 62.0327 68.9564 58.9486C68.1916 57.4397 69.3429 55.8394 69.7461 54.846C66.2962 55.6773 62.4638 55.1205 59.5126 53.6075ZM74.073 44.704C73.5784 44.5419 72.9674 44.6127 72.5185 44.858C71.9532 45.1531 71.9532 45.7847 71.9781 46.3916C72.2026 47.1148 72.8136 47.6802 73.5327 47.8798C74.8171 48.125 76.4631 48.1498 77.4108 47.2478C76.2844 46.3915 75.3117 45.2194 74.073 44.704ZM96.5477 44.2968C97.6284 45.444 98.0814 47.0899 99.5653 47.7882C100.131 47.9253 100.829 47.9254 101.261 47.4723C101.577 47.0026 101.644 46.35 101.506 45.7847C100.538 44.1138 98.3267 43.7523 96.5477 44.2968ZM78.6495 43.6192C77.7683 43.4404 76.7333 43.507 76.1721 44.1595C77.39 45.0158 78.3792 46.4581 79.6428 47.2478C80.4534 47.6801 81.6006 47.4932 82.2781 46.9363C81.1309 45.8763 80.0045 44.384 78.6495 43.6192ZM91.3436 43.5278C92.4659 44.7457 93.1227 46.2337 94.3613 47.3394C95.0804 47.7426 96.186 47.9005 96.93 47.4059C95.9407 46.2088 95.2175 44.8786 94.2282 43.6856C93.4593 43.1702 92.15 43.0124 91.3436 43.5278ZM83.4503 43.0788C82.5483 42.7878 81.6712 43.1703 81.0394 43.6192L83.8992 46.3916C84.7804 47.0026 86.177 47.2936 87.1704 46.7034C85.8403 45.5354 84.9384 43.8478 83.4503 43.0788ZM88.8622 43.1453C88.0018 42.7878 86.946 42.7879 86.2477 43.3033C87.7773 44.5004 88.2303 46.6867 90.1922 47.1813C90.799 47.3185 91.5431 47.1815 91.9712 46.7742C90.6869 45.6685 90.2131 44.093 88.8622 43.1453ZM92.1292 35.4849L89.6519 36.948C89.681 37.5714 90.5289 37.908 90.7159 38.4567C90.7866 38.6687 90.7076 39.6331 90.6079 39.7412C90.2546 40.1153 89.1822 39.7412 88.7249 39.9657C88.1181 40.0779 87.8479 40.7139 87.8687 41.275C88.7042 41.4787 89.7641 41.4537 90.4167 42.2185C91.1399 41.9276 91.8133 41.4993 92.7402 41.6822C92.9397 40.8218 92.9855 39.9033 93.372 39.1135C93.5965 38.5939 94.1576 38.5024 94.6107 38.3486C93.6173 37.4425 92.8732 36.4742 92.1292 35.4849ZM144.336 22.0674C142.893 25.9953 138.658 28.2691 134.668 28.3606C137.261 31.6069 137.756 35.7509 141.405 38.5691C143.367 40.1694 146.007 41.0505 148.6 40.1943C151.913 39.1343 154.212 35.5929 154.798 32.3715C153.85 33.049 152.566 33.7017 151.302 33.9926C149.004 34.4 146.572 34.1506 144.88 32.6169C145.038 32.2802 145.171 31.9685 145.421 31.6734C146.929 28.7638 146.435 24.4782 144.336 22.0674ZM27.5028 21.9136L27.1205 22.3832C25.1336 25.1349 25.1794 29.7362 27.0498 32.5253C26.5552 32.9783 25.9691 33.2028 25.4287 33.5436C22.6563 34.6908 19.3643 33.8804 17.1322 32.1429C17.6725 35.1024 19.3851 38.0286 22.1575 39.5831C24.2774 40.7802 27.2078 40.7139 29.2154 39.3588C33.7253 36.815 34.3778 31.8521 37.1959 28.1985C33.0934 28.1985 29.0574 25.746 27.5028 21.9136ZM98.9376 20.1304C98.6425 20.5793 98.1936 20.9618 97.6989 21.1447C95.6872 21.4149 93.3263 20.8746 91.4975 21.6186C90.8449 21.9553 90.3253 22.6327 90.1009 23.3102C89.9886 24.0127 89.9678 24.84 90.4167 25.4053C91.9048 27.3672 94.7228 26.5108 97.0006 26.7103C97.2667 26.8475 97.4704 27.1218 97.4704 27.4128C97.4039 27.7245 97.2002 27.9073 96.93 28.0445H87.5528C86.946 29.3704 85.7281 30.4554 85.7738 32.0557H83.0679L80.2747 35.2355L77.5687 32.0557L74.842 31.9892L74.7713 30.9044L72.294 26.4193C72.8344 25.5381 73.4454 23.622 73.4454 23.622L72.6764 22.9279L69.6547 25.2472L72.8219 33.5936L75.3117 34.242V33.5228L77.0948 33.5104L76.8662 39.4294C76.6875 40.3729 75.6277 39.8326 75.0873 40.1943C73.9609 40.7305 74.5927 42.289 74.547 43.1453C75.8313 41.9731 77.8639 41.6822 79.5057 42.289L81.5133 36.5613C85.5036 36.8772 89.7184 35.9087 92.7402 33.0032C93.7294 34.9651 95.1967 36.7443 96.93 38.411L96.7721 39.3588C96.7513 40.373 95.8036 39.5167 95.309 39.9033C94.4278 40.1942 94.6107 41.2044 94.3613 41.9027L95.8494 42.921C96.8428 42.4929 98.1022 42.5136 99.1663 42.5136C99.4365 41.117 99.8396 39.7869 100.176 38.411L98.6218 36.4116C99.1663 35.9336 99.478 35.3685 99.7274 34.7824C100.131 33.0283 99.7482 31.245 98.5553 29.9814C99.794 29.412 100.293 28.1568 100.268 26.8724C99.7981 23.5264 95.9657 25.0769 93.4717 24.7236C92.204 24.7236 92.1583 23.036 93.4302 23.036C95.9574 22.824 98.7755 23.3018 101.033 22.3832C101.868 21.8886 102.541 20.9908 102.591 20.1304H98.9376ZM75.158 15.4875L75.3824 17.7403C74.7256 18.7337 73.8693 19.723 73.6906 20.8245L75.4738 23.1522C75.5403 24.2578 74.817 25.2264 74.3016 26.1699L76.5546 30.21H78.267L80.3369 32.7538L82.2781 30.2724L84.1486 30.1352L86.3806 26.1699C85.886 25.2472 85.2334 24.4117 85.142 23.3102L87.0789 20.7624C86.6758 19.7024 86.0439 18.7338 85.2999 17.8027C85.3664 17.0421 85.5245 16.1401 85.4579 15.4875L83.4503 16.5682C81.4468 15.8658 79.169 15.8658 77.1614 16.5682L75.158 15.4875ZM85.6823 7.66501C83.5667 8.88288 83.6997 11.1854 83.7662 13.3884H87.9352C87.8936 12.262 88.0724 11.0234 87.7772 9.98431C87.4198 9.08649 86.7215 7.96012 85.6823 7.66501ZM81.1974 2.77272H84.3107L84.3065 6.10352e-05H87.3283V2.81001L90.4125 2.80164L90.4167 6.10352e-05H93.4385V10.4582L91.4975 12.2412V19.586H97.088C97.6076 19.0248 98.2144 18.3722 99.0955 18.5052H104.753C104.458 20.3133 104.009 22.1339 102.342 23.3102C101.801 23.6719 101.17 23.8465 100.563 24.0751C101.847 25.0686 102.342 26.6895 101.889 28.269C101.577 28.8717 101.348 29.5118 100.717 29.9814C101.847 31.8062 102.072 34.7615 100.717 36.5613C103.535 38.2988 100.654 40.7803 100.875 42.9875C101.935 43.6401 103.015 44.4505 103.132 45.7847C103.335 47.0234 102.928 48.2621 101.889 49.031C101.44 49.3012 100.945 49.4593 100.405 49.5009C100.513 50.4527 101.598 51.3505 102.433 51.9823C104.553 53.4703 107.978 53.1752 110.165 52.0488C111.382 51.3505 112.754 50.2449 113.12 48.8732C113.344 48.0835 113.095 47.2935 112.733 46.641C111.719 45.2651 110.007 45.128 108.473 45.4689C107.459 45.8305 106.444 46.4831 105.833 47.4723C105.069 43.7314 105.16 38.9514 108.701 36.7234C110.343 35.8423 112.621 36.0001 114.201 36.8772C114.67 37.1474 115.123 37.509 115.526 37.9579C115.194 32.5544 116.005 27.0305 120.872 24.0751C123.935 22.3169 128.557 22.6327 131.4 24.7068L133.429 26.4193C137.211 26.465 140.707 24.682 142.623 21.3692C143.213 20.4257 143.417 19.2949 143.637 18.1934C147.515 21.2818 149.319 26.1701 147.898 30.9044C147.628 31.291 147.719 31.7148 148.214 31.8312C151.797 32.6167 154.64 30.2102 157.275 27.9531C157.637 33.7474 155.517 39.2923 150.221 41.9027C147.154 43.3699 143.031 42.6758 140.458 40.5933C137.843 38.6397 136.268 35.9753 134.892 33.3858C133.674 31.9435 131.666 32.3756 129.842 32.5253C127.09 33.0282 124.343 34.8323 123.033 37.4883C122.697 38.2781 122.447 39.0887 122.335 39.9657C122.763 39.92 123.266 39.5376 123.736 39.3588C126.167 38.4361 128.919 39.1759 130.789 40.8219C132.39 42.4222 132.93 44.9494 132.099 47.09C131.309 49.347 129.168 51.6249 126.911 52.4354C126.608 50.0163 125.245 49.2307 124.052 49.1226C120.714 48.3952 119.251 51.6247 116.902 53.5159C114.625 55.6981 110.46 57.4564 110.954 61.2722C111.112 62.9389 111.877 64.4935 113.432 65.462C114.038 65.7986 114.691 66.0481 115.369 66.2269C111.046 67.7606 104.753 68.2552 101.099 64.9216C100.235 66.3265 101.473 68.7208 101.806 69.3775C102.774 71.302 104.183 73.0394 104.37 75.2882C102.388 73.3553 99.7481 72.5406 96.93 73.1267C96.93 73.1267 95.2175 73.3719 87.3325 78.0065C85.3789 79.1496 83.6623 80.0308 83.6623 80.0308C83.6623 80.0308 82.9681 79.6358 82.6606 79.482C80.3163 77.8817 77.7932 76.7139 75.3117 75.4503C74.231 74.6813 73.8943 73.3721 74.073 72.1126C74.3889 70.9654 75.5154 69.9261 76.6211 69.4772V69.0241L74.9959 66.0731C73.7115 65.8902 72.4936 65.5286 71.2134 65.3042C66.9945 67.3534 60.955 68.01 56.3994 66.2269C57.8874 65.8237 59.5583 64.7678 60.2774 63.2132C61.0422 61.563 60.93 59.1274 59.737 57.71C57.3719 55.0498 54.3501 53.491 52.0723 50.5898C50.8087 49.2763 48.9176 48.686 47.0471 49.1848C45.4842 49.6212 44.894 51.3672 45.0187 52.3689C42.0218 51.309 39.4946 48.125 39.3616 44.9244C39.4531 42.8503 40.463 40.8925 42.3086 39.8076C44.3619 38.702 47.3879 38.5275 49.3664 39.9657C49.3456 37.7128 47.9241 35.8007 46.1867 34.242C43.78 32.5046 40.2386 31.6275 37.354 32.9119C35.5916 35.8423 33.7918 39.1343 30.612 41.0505C27.9975 42.7173 23.9199 43.212 21.1683 41.5244C16.2053 38.6855 14.3806 33.4315 14.655 27.8867C16.4631 29.329 18.3086 30.9 20.4367 31.5526C21.4343 31.856 23.3671 32.2053 24.2566 31.3864C23.7578 30.4595 23.5043 28.2523 23.5167 27.4709C23.5583 23.8463 25.2293 20.3508 28.2885 18.0356C28.4506 21.3443 31.3353 24.6153 34.3987 25.6295C35.708 26.0784 37.1502 26.3987 38.5925 26.2615C41.1156 23.647 44.4741 22.2296 48.2857 22.9944C51.2368 23.5805 54.1922 26.1492 55.1607 29.0339C56.1957 31.7149 56.4243 34.9403 56.1749 37.9579C57.6421 36.3618 59.7162 35.7509 61.8319 36.179C64.2677 36.6529 65.735 39.2923 66.0925 41.5244C66.3876 43.4614 66.2296 45.5811 65.9345 47.4723C64.9452 46.1007 63.478 45.153 61.7655 45.2403C60.664 45.4232 59.5375 45.6685 58.8808 46.7742C58.3155 47.8341 58.6106 49.3221 59.1966 50.2698C61.674 53.3374 65.8473 53.8528 69.4967 53.063C70.4237 52.9092 71.1676 52.3689 72.0654 52.1444C71.5251 53.1752 71.3464 54.7547 72.2027 55.6982C75.6069 59.1066 81.4011 58.745 85.7738 57.71C89.2445 56.8745 92.4909 55.4737 95.6 53.7612C93.3014 56.9659 96.1652 60.1458 96.93 63.1427C97.9899 61.5175 99.1871 59.8258 99.794 57.9345C100.156 61.0229 102.317 64.2234 105.451 65.0796C106.893 65.4621 108.743 65.6406 110.252 65.2166C109.08 63.5914 108.406 61.5631 108.947 59.4225C109.13 56.9202 112.081 55.4739 112.193 53.063C109.533 54.7797 105.588 55.32 102.496 54.1479C100.563 53.3165 98.8255 51.3963 98.0149 49.5009C92.3578 53.9235 85.6824 56.1097 78.1091 55.6109C78.7617 53.9234 79.9131 52.4352 80.5865 50.7435L77.7931 50.6522L75.4738 55.0041C74.5677 54.6632 73.6906 53.8526 73.4454 52.909C73.2376 51.6662 73.7115 50.54 74.547 49.663C74.0731 49.4385 73.5119 49.4383 72.9923 49.3469C71.6871 49.0061 70.3321 47.8798 70.1284 46.4832C70.0121 44.6626 70.8725 43.1411 72.6182 43.1453C72.6598 42.3763 72.3356 40.934 72.6764 40.2856C72.8801 39.2215 74.0273 38.8185 74.9293 38.5691C75.0664 38.6148 75.1579 38.5025 75.2493 38.411V35.8672L71.4918 34.9653L67.4932 24.7068C67.4932 24.7068 70.353 22.7407 71.6623 21.527C70.806 20.7622 71.9532 20.0639 72.1319 19.3614L73.5993 17.1086C73.3998 15.6206 73.5535 13.9994 73.0589 12.6195C74.6633 13.2596 76.0807 14.54 77.8639 14.4735L80.1832 14.1825V12.2412L78.267 10.4582V6.10352e-05H81.1974" fill="white"/>
<path d="M48.962 75.6713L39.4518 81.8729L30.3863 88.3906H30.2282L25.3401 82.7251C26.1922 82.0766 26.982 81.291 27.9089 80.7881L30.4527 83.8142C32.1445 82.6628 33.7697 81.3285 35.4157 80.094C34.9626 79.1671 34.0398 78.423 33.6325 77.4545L37.1947 75.0644L39.1358 77.5461C40.9397 76.3989 42.7852 75.3555 44.5643 74.1417L43.708 72.7451C44.7887 72.2505 45.9194 71.4774 47.1164 71.12" fill="white"/>
<path d="M128.154 72.7436L127.298 74.211L132.731 77.611C133.383 76.8005 134.056 75.965 134.734 75.1337L138.225 77.5446V77.7688L136.447 80.0924C138.005 81.4267 139.739 82.6613 141.405 83.8999C142.399 83.0021 143.234 81.9173 144.024 80.8781C144.926 81.3312 145.691 82.1251 146.501 82.7279V82.9564L141.634 88.4556L129.551 80.026L122.875 75.7654L124.75 71.1892C125.922 71.5924 127.003 72.2282 128.154 72.7436Z" fill="white"/>
<path d="M67.8082 93.1223L71.8193 86.6089L75.689 93.1348" fill="white"/>
<path d="M103.897 93.1225L96.074 93.189C97.2005 90.9569 98.5514 88.837 99.8607 86.6756C101.324 88.6998 102.567 90.9777 103.897 93.1225Z" fill="white"/>
<path d="M73.8478 106.669C72.9915 108.294 72.6964 110.119 72.5176 112.01C73.1952 112.351 74.0265 112.081 74.6832 111.94L75.0864 111.694L75.1571 113.947C74.4588 113.523 73.5527 113.544 72.6757 113.565C72.7214 114.533 72.9043 115.639 72.8336 116.745H70.6681C70.6265 115.664 70.6929 114.629 70.8925 113.631C70.0611 113.523 69.0926 113.498 68.4151 113.947L68.3486 111.694C69.1134 112.035 70.1069 112.372 70.9631 112.01C70.8717 110.098 70.3313 108.361 69.6538 106.669C70.4435 105.634 71.3497 104.616 71.7529 103.423C72.1353 104.616 73.0372 105.634 73.8478 106.669Z" fill="white"/>
<path d="M91.6568 127.362V147.426C96.2539 144.475 100.381 140.26 103.42 135.725C105.136 133.09 106.691 130.292 107.46 127.362H91.6568ZM80.0475 127.362H64.1569C66.7465 135.139 72.7652 142.65 80.0475 147.334V127.362ZM105.519 84.6697H66.1604V86.1328L70.346 86.1371L65.674 93.7145C66.0814 94.7495 66.7464 95.8965 67.7149 96.6863C69.2944 97.9915 71.5473 98.3739 73.6007 97.8335C75.496 97.2017 77.1836 95.6016 77.7032 93.6605L73.3138 86.1328L83.3602 86.1371V88.8595L85.5466 88.8846L82.9113 92.3344L85.8417 95.5102L88.7929 92.3344L86.0828 88.897L88.2525 88.8595L88.319 86.1328L98.3862 86.1454C98.3862 86.1454 95.3976 91.2081 93.9802 93.6605C94.2047 94.5416 94.7451 95.3106 95.3104 96.0546C96.9522 97.9666 99.4795 98.4404 101.89 97.8335C103.648 97.2932 105.59 95.5351 105.906 93.6605L101.358 86.1454L105.519 86.1328V84.6697ZM104.214 77.7034L108.316 77.7699C109.779 79.5946 111.134 81.5107 112.959 83.111C110.885 86.1536 110.004 89.6701 107.614 92.5797L111.405 92.7126C111.492 96.146 111.92 99.4131 113.749 102.094L91.5903 102.181V118.301H111.878C110.86 133.09 99.6789 147.559 85.7752 152.925C71.9795 147.476 60.8857 132.998 59.8923 118.301H80.1139V102.181L58.1132 102.094C59.8714 99.3882 60.1416 96.0296 60.2788 92.6462H63.9948V92.4217C61.6962 89.6492 60.8399 86.2907 58.9736 83.3604C58.8365 83.2689 58.745 83.0654 58.878 82.9532C60.7526 81.3778 61.9248 79.4616 63.388 77.7699L75.1594 77.7034C77.9734 78.967 80.7458 80.3386 83.2938 82.2548C87.3256 80.2305 91.3159 78.0401 95.2189 75.6708C97.1143 74.8437 100.045 74.2284 101.89 75.6084C102.726 76.1488 103.557 76.8887 104.214 77.7034Z" fill="white"/>
<path d="M143.572 145.486C143.322 147.718 143.322 150.445 143.572 152.769H141.946C142.487 150.969 142.217 148.733 142.175 146.796C141.543 148.325 141.136 149.971 140.774 151.597H139.602C139.469 150.088 139.016 148.691 138.613 147.265L138.522 152.291C138.613 152.474 138.679 152.652 138.767 152.835C138.206 152.993 137.574 152.993 136.988 153.084L137.37 152.291C137.441 150.312 137.62 148.08 137.212 146.189L136.988 145.96C137.757 145.736 138.634 145.736 139.469 145.644C139.627 146.837 140.03 147.968 140.305 149.119C140.637 147.922 141.207 146.796 141.319 145.486" fill="white"/>
<path d="M36.4971 147.111L36.5303 152.831L36.813 153.375C36.1812 153.463 35.3457 153.242 34.6474 153.147L35.1005 152.291C35.1213 150.175 35.4828 147.718 34.8053 145.802L36.813 146.189" fill="white"/>
<path d="M135.345 147.111C135.008 149.435 136.288 152.565 133.965 153.916C133.246 154.161 132.211 154.502 131.558 153.849L131.084 153.147L130.947 148.192L130.631 147.652C131.176 147.29 131.94 147.111 132.639 146.953L132.256 147.876L132.323 152.698C133.075 153.65 133.919 152.694 134.106 152.265C134.127 152.228 134.193 147.336 134.193 147.336L133.811 146.633C134.372 146.317 135.095 146.342 135.748 146.189" fill="white"/>
<path d="M29.9799 146.344L29.9134 151.594C30.5203 151.661 31.0856 151.594 31.4721 151.054C32.1206 150.019 32.1912 148.327 31.6965 147.176C31.3557 146.502 30.6824 146.344 29.9799 146.344ZM33.2552 146.885C33.8372 148.31 33.8579 150.173 32.931 151.461C31.7838 153.17 29.7346 152.679 27.9099 152.771C29.0113 150.971 28.3796 148.327 28.4502 146.187C28.4502 145.825 28.1344 145.625 27.9723 145.33C29.9342 145.372 32.2161 144.969 33.2552 146.885Z" fill="white"/>
<path d="M42.3787 147.651L42.4702 149.434C41.9714 148.939 41.3437 148.17 40.5332 148.511C39.3153 149.276 39.6063 150.872 39.6728 152.136C39.8307 152.772 40.2173 153.42 40.8491 153.69C41.4102 153.919 41.9714 153.669 42.3787 153.308L42.4702 155.024C40.8699 155.024 39.336 154.621 38.5006 153.083C37.7815 151.711 37.848 149.546 38.75 148.282C39.3818 147.385 40.3503 147.064 41.3894 147.335C41.6804 147.517 42.0213 147.63 42.3787 147.651Z" fill="white"/>
<path d="M130.092 149.119V149.435C129.572 149.073 128.94 149.16 128.379 149.364L128.221 149.588C128.354 151.53 127.905 153.712 128.604 155.403L126.687 156.326C127.253 154.456 126.891 152.207 126.982 150.133C126.326 150.154 125.694 151.056 125.291 151.596C125.212 150.977 125.287 150.328 125.287 149.863C126.75 149.243 128.213 148.612 129.709 147.876C130.067 148.063 129.954 148.715 130.092 149.119Z" fill="white"/>
<path d="M47.8116 152.227C47.4957 151.504 46.7309 150.872 46.0284 150.606C45.9868 152.63 45.7166 154.979 46.257 156.87L44.4074 156.014C44.9727 154.16 44.611 151.936 44.7025 149.908C44.3159 149.634 43.6883 149.434 43.2352 149.75L43.0773 149.908L43.2352 148.283L47.7242 150.357" fill="white"/>
<path d="M124.5 152.137C124.251 151.709 123.644 151.821 123.266 151.913C122.334 152.362 121.998 153.309 121.952 154.232C121.906 155.267 121.998 156.393 122.97 156.871C123.735 157.029 124.251 156.393 124.658 155.853V157.503C123.914 157.815 123.17 158.355 122.272 158.044C121.187 157.59 120.805 156.46 120.555 155.466C120.397 153.534 121.187 151.73 122.879 150.832C123.374 150.558 124.072 150.761 124.5 150.358" fill="white"/>
<path d="M50.4484 151.844L50.1324 152.451L50.199 157.41C50.3819 157.88 50.8765 158.2 51.3046 158.333C51.6663 158.333 52.0736 158.112 52.1401 157.726C52.0486 155.968 52.4102 154.031 51.8491 152.451L53.5409 153.307C53.0421 154.355 53.2831 155.726 53.2665 156.982C53.2623 160.61 50.4941 159.438 49.8166 158.877C49.2305 158.291 48.7358 157.655 48.8273 156.803C48.6901 154.775 49.1432 152.517 48.42 150.759C49.0726 151.146 49.7958 151.391 50.4484 151.844Z" fill="white"/>
<path d="M57.3486 154.774C57.4151 156.079 57.7518 157.276 58.0469 158.494C58.5166 157.476 58.9945 156.491 59.1275 155.31C59.7801 155.422 60.6613 155.406 61.3596 155.626L61.0687 156.711L61.1351 162.256L61.2932 162.971C60.7944 163.158 60.1001 162.842 59.5764 162.68C59.4434 162.547 59.8259 162.302 59.8259 162.057C59.9381 160.386 59.9381 158.561 59.8259 156.869C59.2856 158.311 58.5664 159.687 58.1798 161.221L57.2571 160.905C57.1449 159.147 56.5131 157.476 56.1057 155.788C56.0184 157.675 55.927 159.754 56.1764 161.603C55.7565 161.408 55.3368 161.288 54.9877 161.138C54.8547 161.076 54.7382 161.03 54.7382 161.03C54.7382 161.03 54.7631 160.855 54.7798 160.656C55.1829 158.719 55.0043 156.441 54.9336 154.388L54.7091 153.781" fill="white"/>
<path d="M118.3 157.408L117.602 154.931L117.153 157.953L118.3 157.408ZM118.616 153.31C118.886 155.313 119.564 157.142 120.241 158.963L120.624 159.349C120.013 159.64 119.452 160.027 118.774 160.21C118.957 159.64 118.799 159.013 118.616 158.493C118.03 158.605 117.311 158.855 116.766 159.283C116.633 159.873 116.658 160.588 116.837 161.128C116.18 161.332 115.594 161.673 114.896 161.76C115.91 159.64 116.226 157.23 116.608 154.865L116.521 154.162C117.219 153.871 117.897 153.509 118.616 153.31Z" fill="white"/>
<path d="M112.033 156.262L112.099 158.811C112.44 158.719 112.823 158.719 113.051 158.337C113.342 157.863 113.429 157.206 113.276 156.645C113.184 156.034 112.419 155.967 112.033 156.262ZM114.739 156.1C114.992 156.89 115.009 158 114.448 158.652C113.837 159.484 112.823 159.617 111.966 159.979C111.946 160.881 111.921 161.762 112.261 162.53C111.788 162.913 110.886 162.643 110.254 162.842C111.089 160.905 110.636 158.357 110.636 156.171L110.32 155.56C111.854 155.626 113.791 154.296 114.739 156.1Z" fill="white"/>
<path d="M70.5794 157.501V168.097C71.5271 168.753 72.6286 169.04 73.6926 169.423C79.7737 170.894 86.6527 171.206 93.1204 170.349C95.9385 169.876 98.8274 169.605 101.192 168.03L101.101 157.564C99.0726 158.379 96.8654 158.832 94.6791 159.285C86.74 160.295 77.7038 160.295 70.5794 157.501ZM153.869 145.103C152.343 148.465 152.884 153.108 155.024 156.014C156.895 156.375 158.902 156.62 160.927 156.392V145.643C158.424 145.805 156.171 145.398 153.869 145.103ZM18.0569 145.015C15.7999 145.31 13.6177 145.734 11.1612 145.556V156.325C13.1397 156.554 15.1265 156.305 16.9762 155.947C18.8217 153.216 19.4993 149.546 18.5973 146.187L18.0569 145.015ZM128.31 146.728L117.69 151.845C114.56 153.17 111.156 154.052 107.461 153.781V164.626C110.57 164.938 113.409 164.194 116.069 163.225L126.527 158.204C130.633 156.325 135.006 155.157 139.695 154.704C141.295 154.388 143.323 155.107 144.654 154.072C145.892 153.395 146.412 152.135 146.661 150.897C146.819 148.669 147.089 146.004 146.341 143.935C139.849 143.236 133.788 144.516 128.31 146.728ZM25.5845 143.935C24.7947 146.029 25.065 148.827 25.3393 151.055C25.5637 152.501 26.7358 154.097 28.199 154.48C34.5128 154.575 40.3486 155.723 45.6482 158.266C51.642 160.881 57.0995 165.324 64.3112 164.534V153.781C60.7947 153.985 57.4612 153.287 54.4601 151.998C45.5817 147.517 36.7241 142.538 25.5845 143.935ZM57.8021 92.2684C58.2011 96.1174 57.1661 99.5715 54.8716 102.41C55.2956 103.063 55.8568 103.645 56.4013 104.281C57.4612 104.21 58.6541 104.484 59.4231 103.715C60.2835 103.267 60.8156 103.62 61.3518 104.293C61.9129 104.455 62.2912 104.439 63.0726 104.123C63.0934 104.613 62.7567 105.025 62.3743 105.27C61.9961 105.424 61.8672 105.457 61.4765 105.461C61.1232 106.072 60.5039 106.758 59.5769 106.351C59.1779 105.894 58.517 106.06 58.0473 106.13L57.9558 106.193C59.0823 107.099 60.0757 108.292 61.4515 108.608C61.9711 108.338 62.6653 108.338 63.2306 108.541C64.1076 108.741 63.7044 109.896 64.4692 110.162L65.4626 110.079C64.9181 111.089 63.7043 110.794 62.9146 111.401C61.385 111.671 60.7739 110.187 59.5104 109.851L57.8894 108.608C58.0016 110.1 58.7415 111.538 59.6684 112.798C60.1423 113.138 60.7948 113.026 61.2021 113.496C61.8339 113.812 61.2021 114.988 62.2163 114.805H63.3012C62.7567 115.915 61.4058 115.412 60.6618 116.206C59.9385 116.41 59.1945 116.181 58.6541 115.732C58.2468 115.188 58.1803 114.489 58.1138 113.791C56.58 112.033 55.7903 109.959 55.1626 107.839C54.9215 108.113 54.693 108.45 54.851 108.683C55.0796 109.023 55.4702 109.863 54.8426 110.466C54.6348 110.778 54.8426 111.426 55.0255 111.784C54.4436 111.567 54.19 111.31 53.712 110.852C53.2464 110.724 52.1782 110.021 53.2215 108.541C53.3794 107.461 53.8783 106.559 54.2357 105.586C54.1235 105.004 53.6081 104.572 53.155 104.123C49.0525 107.685 44.2267 109.535 39.5173 111.63C38.3451 112.278 37.0358 113.342 36.8113 114.718C36.8778 115.396 37.2146 116.002 37.8256 116.364C41.7286 117.623 45.3116 113.724 49.0525 116.206C51.9579 118.006 50.6985 122.291 54.3272 123.26C52.5898 123.8 50.6071 125.043 49.9753 126.893C49.4807 129.054 49.4391 131.802 50.9022 133.564C53.8325 136.877 60.1879 133.676 61.518 138.971C61.5886 139.965 61.5388 140.913 60.6618 141.544C60.7532 142.875 60.1173 144.113 58.8786 144.724L58.0473 145.103C58.2468 144.429 58.6542 143.639 58.2718 142.916C58.0266 142.305 57.507 141.877 56.9417 141.544C56.8087 142.401 56.6714 143.282 56.1768 144.026C55.545 144.899 54.6638 145.173 53.6954 145.26C54.1484 144.541 54.1484 143.548 54.0112 142.692C53.8533 142.264 53.5374 141.765 53.0885 141.607C52.4775 143.053 51.1225 144.429 49.5264 144.562C50.021 143.997 50.179 143.211 49.9753 142.471C49.8381 140.934 47.9718 141.453 47.4273 140.144C46.3466 138.115 44.2932 136.806 41.9988 136.968C43.1917 134.96 45.1286 133.069 44.2474 130.384C43.9565 129.029 42.6306 127.724 41.2963 127.429L39.0643 127.362C38.6362 125.338 37.2603 123.035 35.0989 122.399C34.8495 122.474 34.625 122.183 34.4006 122.399C36.6327 125.313 36.7906 130.068 35.1903 133.31C33.7231 137.413 29.1467 138.252 26.7359 141.673C37.6427 141.046 46.3923 145.622 55.1626 150.132C57.0331 150.872 58.9451 151.504 61.0691 151.686C61.2727 150.922 60.8613 149.816 61.834 149.434C65.4626 148.282 69.2284 149.571 71.9801 151.911C73.4432 152.855 72.7242 154.704 72.9029 156.171C74.366 156.915 76.1034 156.957 77.7037 157.339C84.2628 158.266 91.3622 158.042 97.6303 156.645C98.0377 156.529 98.4616 156.487 98.7775 156.171C98.9397 154.908 98.3951 153.353 99.2555 152.381C102.14 149.725 106.106 148.307 110.025 149.525C110.84 149.974 110.591 150.897 110.636 151.686C116.609 151.213 121.389 147.405 126.755 145.26C132.371 142.874 138.34 141.428 145.107 141.831L145.194 141.765C142.6 138.207 137.35 136.993 136.291 132.387C135.276 129.166 135.322 125.109 137.442 122.399C136.108 122.474 134.757 123.285 133.967 124.565C133.314 125.425 133.111 126.439 132.795 127.429C131.037 127.25 129.187 127.52 128.156 129.146C127.204 130.721 127.05 132.911 128.156 134.487L129.84 137.034C127.341 136.768 125.334 138.406 124.116 140.46C123.397 141.561 121.368 141.316 121.726 143.074C121.772 143.594 121.838 144.113 122.27 144.475C121.323 144.516 120.284 143.934 119.544 143.074C119.024 142.692 119.111 141.744 118.459 141.673C117.445 142.376 117.648 143.772 117.852 144.795L118.077 145.173C117.445 145.331 116.721 144.949 116.135 144.633C115.233 143.864 114.988 142.804 114.897 141.673C114.423 141.561 113.949 142.151 113.658 142.538C113.342 143.099 113.276 143.839 113.429 144.475L113.749 145.103C112.577 144.766 111.339 143.797 111.11 142.538C111.11 142.197 110.977 141.902 111.023 141.544C110.187 140.867 110.05 139.828 110.254 138.818C112.099 132.774 121.414 137.982 122.021 130.766C122.449 128.268 121.93 125.878 119.789 124.411C119.066 123.912 118.255 123.646 117.47 123.33C121.007 122.133 119.835 117.532 123.264 115.89C127.184 114.04 130.475 117.873 134.262 116.272C134.96 115.799 135.21 115.03 134.96 114.269C132.841 110.661 128.58 110.57 125.446 108.608C123.127 107.257 120.691 106.13 118.617 104.193C118.143 104.484 117.806 104.979 117.536 105.424C117.715 106.625 118.392 107.594 118.617 108.766C119.311 109.639 118.887 110.341 118.226 110.64C117.84 111.031 117.291 111.621 116.767 111.784C116.834 111.426 117.083 111.131 116.996 110.707C116.476 110.341 116.476 109.688 116.609 109.148C116.996 108.811 116.701 108.404 116.68 107.997L116.518 107.839C115.977 110.1 114.988 112.149 113.5 114.04C113.567 114.718 113.5 115.371 112.96 115.824C112.465 116.343 111.63 116.343 110.952 116.206C110.233 115.441 108.924 115.865 108.383 114.805C108.969 114.718 109.668 115.009 110.096 114.581C110.071 113.974 110.478 113.409 111.023 113.188C111.268 112.935 111.671 113.118 111.966 112.935C112.935 111.65 113.567 110.229 113.883 108.674H113.658C112.552 109.801 111.181 110.191 110.025 111.193C109.306 111.625 108.545 111.472 107.993 110.944C107.743 111.019 106.575 110.836 106.218 110.079C106.646 110.142 107.298 110.324 107.614 109.913C107.569 109.377 107.93 108.928 108.317 108.608C108.94 108.254 109.535 108.354 110.009 108.67C110.445 108.778 110.873 108.687 111.268 108.221C112.124 107.639 113.005 106.92 113.749 106.193C112.552 105.366 111.717 107.19 110.636 106.13L110.162 105.519C109.555 105.453 108.949 105.162 108.629 104.572C108.583 104.459 108.516 104.351 108.541 104.193C109.082 104.239 109.58 104.414 110.162 104.351C110.499 103.873 110.977 103.716 111.492 103.645C112.124 103.67 112.665 103.874 113.118 104.281C114.02 104.036 115.055 104.821 115.686 103.873L116.834 102.477C114.581 99.638 113.454 96.0758 113.974 92.3349C115.89 92.3556 117.781 92.3557 119.544 92.0398C119.228 94.7 119.249 97.9005 118.933 100.561C118.933 100.561 123.368 99.3261 128.601 97.0691C129.054 101.039 130.924 104.397 132.412 107.914C134.487 105.856 136.922 104.301 138.768 102.028C142.762 106.625 147.197 111.152 148.981 116.746C149.43 120.242 149.496 124.386 153.241 126.032C153.852 126.348 154.642 126.419 155.34 126.282C155.81 126.099 156.126 125.625 156.263 125.18C156.6 122.225 154.505 120.08 153.648 117.511C152.273 115.171 151.82 111.268 153.711 108.994C155.993 106.018 160.523 108.516 162.847 105.657C163.383 105.116 163.678 104.439 164.015 103.807C164.356 105.249 163.77 106.488 163.632 107.839C164.377 107.614 165.191 107.12 165.952 106.758C166.679 106.268 167.419 105.519 167.893 104.821C166.451 108.338 166.879 113.791 162.007 114.718C160.636 114.876 159.168 114.805 157.905 114.489C157.344 114.489 156.803 114.718 156.508 115.188V116.115C157.797 120.151 161.895 124.162 159.214 128.672C157.95 130.201 155.993 130.584 154.097 130.135C152.518 129.711 151.1 128.696 149.928 127.429L149.679 128.198C149.23 133.427 149.77 139.404 154.642 142.089C155.066 142.151 155.427 142.355 155.876 142.376L155.182 143.166L155.34 143.323C157.726 143.797 160.34 143.702 162.776 143.39L162.847 158.204C159.123 158.761 155.269 158.204 151.774 157.501C149.139 158.99 148.191 162.057 145.423 163.225C144.969 163.632 144.99 164.31 145.107 164.846C145.24 165.254 145.468 165.615 145.801 165.927C144.562 165.794 143.323 164.959 142.779 163.761C142.625 163.383 142.488 163.001 142.33 162.593C141.495 162.955 141.112 163.903 141.091 164.78L141.158 165.549C139.782 165.05 138.951 163.495 138.839 162.057C138.024 162.19 137.621 163.2 137.371 163.928L137.284 164.626C136.062 163.071 135.659 159.937 136.744 157.95L137.371 157.094C135.522 157.094 133.788 157.768 132.026 158.204C123.056 160.54 115.819 168.475 105.519 166.313L105.453 162.369C104.663 162.323 103.853 162.681 103.129 163.071V168.953C99.8832 171.842 95.3317 171.883 91.1169 172.602C83.5187 172.985 75.4966 173.031 69.1828 169.585L68.6424 169.04V163.138C68.0771 162.639 67.2209 162.548 66.4769 162.302H66.3188L66.2482 166.247L66.0944 166.405C61.9462 167.124 57.9101 166.247 54.3937 164.78L43.5533 159.505C40.6895 158.337 37.6427 157.385 34.5585 157.028C36.0881 158.94 35.9801 162.12 34.941 164.239L34.65 164.626C34.4421 163.607 34.2177 162.531 33.2534 161.895C32.8917 162.681 32.7546 163.699 32.1686 164.468C31.8527 164.958 31.3331 165.274 30.8384 165.482C30.8176 164.489 30.7719 163.001 29.5956 162.531C29.2589 163.99 28.0202 165.482 26.5114 165.865H26.1249C26.7816 165.229 27.1183 164.264 26.7359 163.383C23.9385 162.19 22.7705 158.898 20.1518 157.41C16.6811 158.113 12.8737 158.695 9.15356 158.113V143.39C11.5893 143.772 14.4033 143.702 16.7476 143.166L16.8182 143.074L16.0535 142.305C18.7552 142.089 20.7836 139.2 21.5526 136.877C22.5419 134.083 22.6084 130.496 22.0888 127.429C21.3489 127.928 20.7421 128.651 19.9939 129.146C18.2565 130.338 15.6004 130.721 13.7258 129.528C12.3749 128.493 11.793 127.03 11.8595 125.338C12.1712 121.817 14.3825 119.066 15.5089 115.89C15.6211 115.329 15.376 114.834 14.8772 114.581C12.1256 114.693 8.88338 115.304 6.89654 112.868C4.9388 110.591 5.38774 107.303 4.12415 104.73C5.13835 106.351 6.78434 107.099 8.29733 107.839C8.25161 106.534 7.66558 105.095 7.98148 103.715C8.49689 105.116 9.82688 106.625 11.3149 106.895C13.8629 107.436 16.9513 106.829 18.5973 109.377C21.7313 114.942 16.2323 119.228 15.667 124.411C15.6462 124.956 15.8 125.404 16.1159 125.808C16.569 126.302 17.2672 126.464 17.899 126.282C23.8512 124.681 21.7064 117.96 23.9385 113.949C26.2828 109.664 29.6455 105.815 33.004 101.937C34.9617 104.052 37.2603 105.948 39.4508 107.839C40.8682 104.326 42.8759 101.059 43.1668 97.0691C46.2344 98.4615 49.5679 99.2763 52.6812 100.561C52.6355 97.7633 52.569 94.7665 52.1408 92.0398C53.8991 92.443 55.9275 92.1769 57.8021 92.2684Z" fill="white"/>
<path d="M75.3133 160.814C75.4255 162.028 75.65 163.2 76.0116 164.31C76.3524 163.296 76.5977 162.236 76.7099 161.126C77.4331 161.243 78.4015 161.222 79.1913 161.442L78.8754 162.303C78.9419 164.418 78.6717 166.679 79.104 168.637L77.4082 168.413C77.8155 166.767 77.6119 164.601 77.5703 162.751C77.1172 164.148 76.5311 165.503 76.556 167.103C76.2401 167.145 75.7414 167.124 75.3798 167.012C75.2883 165.345 74.7272 163.878 74.3864 162.303C74.2077 164.015 74.0288 166.114 74.5484 167.706L72.9024 167.332C73.6007 165.615 73.2392 163.362 73.2184 161.442C73.1269 161.064 73.1269 160.611 72.9024 160.274" fill="white"/>
<path d="M98.7118 160.364C98.1715 162.28 98.4416 164.649 98.4873 166.719C98.5995 166.881 98.5331 167.147 98.6245 167.33C98.1258 167.6 97.5853 167.754 96.9992 167.804C97.178 165.975 97.3359 164.084 97.1572 162.209C96.7748 163.81 96.0308 165.277 96.0059 167.01C95.6276 167.081 95.3075 167.239 94.9001 167.259C94.7921 165.634 94.3183 164.146 93.8195 162.683C93.7987 164.537 93.5286 166.694 94.0689 168.415C93.5036 168.635 92.8759 168.615 92.2857 168.723C92.9881 166.831 92.5351 164.445 92.6681 162.301L92.2857 161.444C93.0754 161.332 93.9317 161.361 94.6758 161.128C94.9002 161.49 94.8794 162.055 94.9958 162.529L95.532 164.47C95.7814 163.269 96.2802 162.188 96.3009 160.904C97.1364 160.771 97.8763 160.455 98.7118 160.364Z" fill="white"/>
<path d="M84.5338 163.07C83.9228 162.592 83.025 162.351 82.2768 162.684V164.625C82.7964 164.695 83.5655 164.874 83.9936 164.471L84.0601 165.93C83.5446 165.68 83.025 165.435 82.3683 165.547L82.2768 168.029C82.8878 168.253 83.769 168.253 84.3759 168.029L84.8498 167.805V169.114C83.341 169.176 81.9194 168.997 80.4979 168.794C80.8803 168.137 81.0423 167.397 80.9717 166.562C80.8387 164.895 81.2876 163.004 80.5852 161.603L84.5338 161.827" fill="white"/>
<path d="M91.1168 161.602C90.3728 163.427 90.9131 165.775 90.6429 167.804C90.46 168.319 90.0112 168.793 89.4917 169.042C86.9063 169.741 86.2454 167.958 86.2454 167.958C86.0001 165.929 86.449 163.631 85.8421 161.76H87.7791C87.2387 163.473 87.509 165.613 87.5547 167.484C87.7126 167.891 88.1407 167.978 88.4816 168.095C88.972 168.115 89.4043 167.85 89.6496 167.396C89.741 165.68 89.8325 163.743 89.5581 162.055L89.3337 161.76C89.8117 161.581 90.5765 161.76 91.1168 161.602Z" fill="white"/>
</svg>
